<svg width="20" height="34" viewBox="0 0 20 34" fill="none" xmlns="http://www.w3.org/2000/svg">
<path fill-rule="evenodd" clip-rule="evenodd" d="M3.20372 10.3373C1.99419 10.3373 1.01367 11.318 1.01367 12.5277V18.0591C1.01367 21.0303 2.71123 23.7218 5.39376 25V12.5277C5.39376 11.318 4.41324 10.3373 3.20372 10.3373Z" fill="white"/>
<path fill-rule="evenodd" clip-rule="evenodd" d="M10.1432 13.3049C8.93365 13.3049 7.95312 14.2855 7.95312 15.4953V24.9903C9.41356 24.9903 10.8728 24.9903 12.3332 24.9903V15.4953C12.3332 14.2855 11.3527 13.3049 10.1432 13.3049Z" fill="white"/>
<path fill-rule="evenodd" clip-rule="evenodd" d="M17.084 7C15.8748 7 14.8945 7.98042 14.8945 9.18981V24.9903C17.3129 24.9903 19.2734 23.0295 19.2734 20.6107V9.18981C19.2734 7.98042 18.2932 7 17.084 7Z" fill="white"/>
</svg>
